<svg width="107" height="33" viewBox="0 0 107 33" fill="none" xmlns="http://www.w3.org/2000/svg">
<g id="Group 35">
<path id="Vector" d="M46.858 17.6891C50.0957 17.6891 52.7152 15.0696 52.7152 11.8318H46.858V5.97461H43.9294C43.1581 5.97461 42.4567 6.27379 41.9348 6.75912C41.3597 7.29432 41.0007 8.05556 41.0007 8.90323V23.5463C41.0007 28.3997 44.9333 32.3322 49.7866 32.3322C51.4055 32.3322 52.7152 31.0224 52.7152 29.4036C52.7152 27.7847 51.4055 26.4749 49.7866 26.4749C48.1677 26.4749 46.858 25.1652 46.858 23.5463V17.6891Z" fill="#F9F9F9"/>
<path id="Vector_2" d="M32.215 14.7601V27.3355H29.2863C27.6675 27.3355 26.3577 25.7 26.3577 24.0811V14.7567C26.3577 13.1379 25.048 11.8281 23.4291 11.8281C21.8102 11.8281 20.5005 13.1379 20.5005 14.7567V23.5426C20.5005 28.3959 24.433 32.3285 29.2863 32.3285H32.215C35.4527 32.3285 38.0722 29.709 38.0722 26.4712V11.8281H35.1436C33.5247 11.8281 32.215 13.1379 32.215 14.7567V14.7601Z" fill="#F9F9F9"/>
<path id="Vector_3" d="M8.78586 11.0837H5.85724V0.117188H2.93194C1.31305 0.117188 0 1.43024 0 3.04913V29.2771C0 30.8062 1.11693 32.1724 2.63942 32.3187C4.38462 32.4849 5.85391 31.1153 5.85391 29.4034V16.0767H8.78253C10.4014 16.0767 11.7111 17.3864 11.7111 19.0053V28.9014V29.2771C11.7111 30.8062 12.8281 32.1724 14.3506 32.3187C16.0958 32.4849 17.5651 31.1153 17.5651 29.4034V19.8696C17.5651 15.0162 13.6325 11.0837 8.77921 11.0837H8.78586Z" fill="#F9F9F9"/>
<path id="Vector_4" d="M86.1333 11.832H83.2046C79.9669 11.832 77.3474 14.4515 77.3474 17.6893V32.3324H80.276C81.8949 32.3324 83.2046 31.0226 83.2046 29.4037V16.8283H86.1333C87.7522 16.8283 89.0619 18.4638 89.0619 20.0827V29.4071C89.0619 31.026 90.3716 32.3357 91.9905 32.3357C93.6094 32.3357 94.9191 31.026 94.9191 29.4071V20.6212C94.9191 15.7679 90.9866 11.8354 86.1333 11.8354V11.832Z" fill="#F9F9F9"/>
<path id="Vector_5" d="M97.848 11.832C96.3122 11.832 94.8662 12.2276 93.6096 12.9224C95.0158 14.2886 96.0529 16.0371 96.5449 17.9984C96.9371 17.8023 97.3793 17.6893 97.8446 17.6893C99.4635 17.6893 100.773 18.999 100.773 20.6179V29.4037C100.773 31.0226 102.083 32.3324 103.702 32.3324C105.321 32.3324 106.631 31.0226 106.631 29.4037V20.6179C106.631 15.7646 102.698 11.832 97.8446 11.832H97.848Z" fill="#F9F9F9"/>
<path id="Vector_6" d="M66.4772 13.3776V14.3816C66.4772 15.6281 65.4667 16.642 64.2168 16.642C66.6401 16.642 68.6014 18.6066 68.6014 21.0266V22.9746C68.6014 25.3979 66.6368 27.3592 64.2168 27.3592C65.4634 27.3592 66.4772 28.3698 66.4772 29.6197V30.6236C66.4772 31.8702 65.4667 32.884 64.2168 32.884C69.8679 32.884 74.4487 28.6291 74.4487 22.9746V21.0266C74.4487 15.3755 69.8679 11.1172 64.2168 11.1172C65.4634 11.1172 66.4772 12.1277 66.4772 13.3776Z" fill="#167C80"/>
<path id="Vector_7" d="M64.2202 32.884C62.9736 32.884 61.9597 31.8735 61.9597 30.6236V29.6197C61.9597 28.3731 62.9703 27.3592 64.2202 27.3592C61.7968 27.3592 59.8355 25.3946 59.8355 22.9746V21.0266C59.8355 18.6033 61.8001 16.642 64.2202 16.642C62.9736 16.642 61.9597 15.6315 61.9597 14.3816V13.3776C61.9597 12.1311 62.9703 11.1172 64.2202 11.1172C58.569 11.1172 53.9883 15.3722 53.9883 21.0266V22.9746C53.9883 28.6257 58.569 32.884 64.2202 32.884Z" fill="#2ED9C3"/>
</g>
</svg>
